<svg width="1200" height="440" viewBox="0 0 1200 440" fill="none" xmlns="http://www.w3.org/2000/svg" role="img" aria-labelledby="title desc">
  <title id="title">Diarix — local speech intelligence</title>
  <desc id="desc">A dark cinematic banner with animated gold wave fields and the Diarix product promise.</desc>
  <defs>
    <linearGradient id="bg" x1="46" y1="24" x2="1154" y2="416" gradientUnits="userSpaceOnUse">
      <stop stop-color="#0B0B0A"/>
      <stop offset="0.48" stop-color="#12110D"/>
      <stop offset="1" stop-color="#070707"/>
    </linearGradient>
    <radialGradient id="glow" cx="0" cy="0" r="1" gradientUnits="userSpaceOnUse" gradientTransform="translate(600 222) rotate(90) scale(240 480)">
      <stop stop-color="#B99538" stop-opacity=".18"/>
      <stop offset="1" stop-color="#B99538" stop-opacity="0"/>
    </radialGradient>
    <linearGradient id="gold" x1="430" y1="0" x2="770" y2="0" gradientUnits="userSpaceOnUse">
      <stop stop-color="#7C6124"/>
      <stop offset=".5" stop-color="#E1C15D"/>
      <stop offset="1" stop-color="#8D6E29"/>
    </linearGradient>
    <filter id="soft" x="-20%" y="-30%" width="140%" height="160%">
      <feGaussianBlur stdDeviation="9"/>
    </filter>
    <filter id="waveSoft" x="-2%" y="-8%" width="104%" height="116%">
      <feGaussianBlur stdDeviation=".68"/>
    </filter>
    <radialGradient id="medallionGlow" cx="0" cy="0" r="1" gradientUnits="userSpaceOnUse" gradientTransform="translate(600 104) rotate(90) scale(86)">
      <stop stop-color="#D1AC49" stop-opacity=".32"/>
      <stop offset="1" stop-color="#D1AC49" stop-opacity="0"/>
    </radialGradient>
    <filter id="medallionShadow" x="510" y="12" width="180" height="180" filterUnits="userSpaceOnUse">
      <feOffset dy="6"/>
      <feGaussianBlur stdDeviation="8"/>
      <feColorMatrix type="matrix" values="0 0 0 0 0  0 0 0 0 0  0 0 0 0 0  0 0 0 .45 0"/>
    </filter>
    <clipPath id="clip">
      <rect width="1200" height="440" rx="28"/>
    </clipPath>
  </defs>

  <g clip-path="url(#clip)">
    <rect width="1200" height="440" rx="28" fill="url(#bg)"/>
    <rect width="1200" height="440" fill="url(#glow)"/>

    <g stroke="url(#gold)" stroke-width="1.15" stroke-linecap="round" stroke-linejoin="round" filter="url(#waveSoft)">
      <path d="M0,210.5 L60,220.2 L120,214.5 L180,204.3 L240,198.8 L300,200.4 L360,217.1 L420,231.1 L480,215.5 L540,191.6 L600,193.1 L660,210.5 L720,223.8 L780,225.4 L840,208.8 L900,191.4 L960,200.1 L1020,218.3 L1080,218.2 L1140,211.1 L1200,209.2" opacity=".42"><animate attributeName="d" dur="8.8s" repeatCount="indefinite" values="M0,210.5 L60,220.2 L120,214.5 L180,204.3 L240,198.8 L300,200.4 L360,217.1 L420,231.1 L480,215.5 L540,191.6 L600,193.1 L660,210.5 L720,223.8 L780,225.4 L840,208.8 L900,191.4 L960,200.1 L1020,218.3 L1080,218.2 L1140,211.1 L1200,209.2;M0,210.4 L60,221.8 L120,218.3 L180,201.7 L240,198.5 L300,209.2 L360,221.5 L420,228.6 L480,215.9 L540,192.0 L600,193.4 L660,218.5 L720,229.9 L780,220.9 L840,206.9 L900,196.3 L960,202.2 L1020,220.9 L1080,223.5 L1140,210.1 L1200,207.3;M0,209.3 L60,215.0 L120,215.0 L180,198.7 L240,192.6 L300,210.0 L360,224.1 L420,220.7 L480,207.1 L540,191.0 L600,192.0 L660,217.1 L720,230.9 L780,214.4 L840,196.9 L900,196.1 L960,203.8 L1020,216.0 L1080,220.7 L1140,208.2 L1200,200.3;M0,213.4 L60,212.1 L120,209.7 L180,199.9 L240,193.1 L300,209.4 L360,227.7 L420,218.7 L480,198.4 L540,190.8 L600,197.8 L660,216.9 L720,229.5 L780,213.4 L840,191.0 L900,194.7 L960,210.1 L1020,215.9 L1080,215.6 L1140,208.9 L1200,200.0;M0,210.5 L60,220.2 L120,214.5 L180,204.3 L240,198.8 L300,200.4 L360,217.1 L420,231.1 L480,215.5 L540,191.6 L600,193.1 L660,210.5 L720,223.8 L780,225.4 L840,208.8 L900,191.4 L960,200.1 L1020,218.3 L1080,218.2 L1140,211.1 L1200,209.2"/></path>
      <path d="M0,223.2 L60,221.0 L120,209.8 L180,211.7 L240,219.6 L300,229.4 L360,220.4 L420,200.7 L480,211.4 L540,229.8 L600,227.9 L660,213.1 L720,201.0 L780,216.9 L840,233.0 L900,219.9 L960,209.5 L1020,210.9 L1080,219.0 L1140,225.7 L1200,215.8" opacity=".34"><animate attributeName="d" dur="8.8s" repeatCount="indefinite" values="M0,223.2 L60,221.0 L120,209.8 L180,211.7 L240,219.6 L300,229.4 L360,220.4 L420,200.7 L480,211.4 L540,229.8 L600,227.9 L660,213.1 L720,201.0 L780,216.9 L840,233.0 L900,219.9 L960,209.5 L1020,210.9 L1080,219.0 L1140,225.7 L1200,215.8;M0,213.0 L60,214.8 L120,225.9 L180,216.8 L240,203.9 L300,211.1 L360,223.1 L420,228.7 L480,212.2 L540,197.5 L600,216.3 L660,230.5 L720,221.7 L780,207.3 L840,202.7 L900,221.0 L960,228.4 L1020,213.2 L1080,209.7 L1140,213.1 L1200,217.4;M0,211.8 L60,209.0 L120,208.5 L180,216.9 L240,225.7 L300,209.0 L360,198.7 L420,212.6 L480,224.8 L540,223.4 L600,203.2 L660,197.2 L720,220.3 L780,226.7 L840,213.6 L900,203.5 L960,205.1 L1020,221.1 L1080,220.8 L1140,208.3 L1200,211.0;M0,218.4 L60,223.2 L120,212.1 L180,208.0 L240,212.3 L300,225.0 L360,227.3 L420,205.1 L480,201.8 L540,220.9 L600,229.1 L660,220.8 L720,201.8 L780,205.1 L840,227.4 L900,225.0 L960,212.2 L1020,208.1 L1080,212.2 L1140,223.2 L1200,218.4;M0,223.2 L60,221.0 L120,209.8 L180,211.7 L240,219.6 L300,229.4 L360,220.4 L420,200.7 L480,211.4 L540,229.8 L600,227.9 L660,213.1 L720,201.0 L780,216.9 L840,233.0 L900,219.9 L960,209.5 L1020,210.9 L1080,219.0 L1140,225.7 L1200,215.8"/></path>
      <path d="M0,228.1 L60,218.9 L120,218.1 L180,227.1 L240,229.9 L300,219.4 L360,211.2 L420,231.1 L480,232.2 L540,217.5 L600,211.6 L660,228.8 L720,235.3 L780,214.9 L840,215.3 L900,226.4 L960,232.1 L1020,218.6 L1080,216.8 L1140,226.9 L1200,224.2" opacity=".28"><animate attributeName="d" dur="8.8s" repeatCount="indefinite" values="M0,228.1 L60,218.9 L120,218.1 L180,227.1 L240,229.9 L300,219.4 L360,211.2 L420,231.1 L480,232.2 L540,217.5 L600,211.6 L660,228.8 L720,235.3 L780,214.9 L840,215.3 L900,226.4 L960,232.1 L1020,218.6 L1080,216.8 L1140,226.9 L1200,224.2;M0,221.1 L60,223.3 L120,211.7 L180,218.3 L240,228.2 L300,222.2 L360,210.4 L420,214.0 L480,233.7 L540,221.8 L600,208.5 L660,215.2 L720,231.2 L780,224.7 L840,207.1 L900,218.6 L960,226.5 L1020,223.6 L1080,212.8 L1140,217.8 L1200,224.2;M0,222.6 L60,222.5 L120,219.2 L180,210.6 L240,224.7 L300,228.7 L360,214.9 L420,210.0 L480,223.0 L540,233.7 L600,212.6 L660,209.4 L720,224.1 L780,230.6 L840,216.3 L900,208.6 L960,225.5 L1020,225.0 L1080,218.8 L1140,214.1 L1200,221.3;M0,221.2 L60,228.8 L120,224.0 L180,217.9 L240,217.2 L300,233.9 L360,227.0 L420,212.0 L480,218.7 L540,233.1 L600,230.5 L660,209.2 L720,219.4 L780,233.0 L840,227.9 L900,214.4 L960,217.7 L1020,232.2 L1080,223.7 L1140,220.2 L1200,220.3;M0,228.1 L60,218.9 L120,218.1 L180,227.1 L240,229.9 L300,219.4 L360,211.2 L420,231.1 L480,232.2 L540,217.5 L600,211.6 L660,228.8 L720,235.3 L780,214.9 L840,215.3 L900,226.4 L960,232.1 L1020,218.6 L1080,216.8 L1140,226.9 L1200,224.2"/></path>
      <path d="M0,229.2 L60,223.7 L120,220.8 L180,226.2 L240,232.8 L300,234.0 L360,230.6 L420,224.4 L480,218.0 L540,219.2 L600,230.0 L660,238.5 L720,234.4 L780,224.7 L840,220.2 L900,221.6 L960,225.6 L1020,231.0 L1080,233.4 L1140,229.0 L1200,223.8" opacity=".22"><animate attributeName="d" dur="8.8s" repeatCount="indefinite" values="M0,229.2 L60,223.7 L120,220.8 L180,226.2 L240,232.8 L300,234.0 L360,230.6 L420,224.4 L480,218.0 L540,219.2 L600,230.0 L660,238.5 L720,234.4 L780,224.7 L840,220.2 L900,221.6 L960,225.6 L1020,231.0 L1080,233.4 L1140,229.0 L1200,223.8;M0,224.9 L60,221.4 L120,219.8 L180,226.1 L240,233.1 L300,230.9 L360,222.4 L420,217.1 L480,217.5 L540,222.8 L600,231.3 L660,235.6 L720,228.4 L780,217.3 L840,215.5 L900,222.7 L960,228.3 L1020,229.2 L1080,228.2 L1140,225.0 L1200,221.3;M0,225.3 L60,225.4 L120,226.0 L180,230.7 L240,235.4 L300,230.9 L360,220.6 L420,217.4 L480,224.3 L540,232.4 L600,235.9 L660,233.9 L720,226.1 L780,217.9 L840,219.3 L900,229.3 L960,235.0 L1020,231.5 L1080,226.8 L1140,225.7 L1200,225.3;M0,225.2 L60,228.4 L120,231.6 L180,233.4 L240,233.5 L300,228.3 L360,220.2 L420,220.1 L480,230.5 L540,239.1 L600,236.7 L660,228.8 L720,222.6 L780,220.7 L840,224.9 L900,233.8 L960,237.6 L1020,231.5 L1080,224.7 L1140,225.4 L1200,228.6;M0,229.2 L60,223.7 L120,220.8 L180,226.2 L240,232.8 L300,234.0 L360,230.6 L420,224.4 L480,218.0 L540,219.2 L600,230.0 L660,238.5 L720,234.4 L780,224.7 L840,220.2 L900,221.6 L960,225.6 L1020,231.0 L1080,233.4 L1140,229.0 L1200,223.8"/></path>
      <path d="M0,230.3 L60,228.9 L120,235.4 L180,230.3 L240,227.0 L300,232.4 L360,237.1 L420,225.0 L480,228.8 L540,236.9 L600,232.4 L660,222.9 L720,235.0 L780,235.3 L840,227.5 L900,227.2 L960,237.1 L1020,230.1 L1080,228.6 L1140,231.0 L1200,233.8" opacity=".16"><animate attributeName="d" dur="8.8s" repeatCount="indefinite" values="M0,230.3 L60,228.9 L120,235.4 L180,230.3 L240,227.0 L300,232.4 L360,237.1 L420,225.0 L480,228.8 L540,236.9 L600,232.4 L660,222.9 L720,235.0 L780,235.3 L840,227.5 L900,227.2 L960,237.1 L1020,230.1 L1080,228.6 L1140,231.0 L1200,233.8;M0,231.4 L60,229.1 L120,232.8 L180,235.5 L240,227.2 L300,229.5 L360,237.1 L420,232.3 L480,224.1 L540,235.3 L600,236.6 L660,226.8 L720,227.7 L780,238.9 L840,230.8 L900,226.9 L960,232.8 L1020,236.1 L1080,227.8 L1140,231.4 L1200,232.5;M0,236.0 L60,232.8 L120,232.9 L180,239.3 L240,234.6 L300,229.3 L360,237.4 L420,240.0 L480,229.3 L540,231.6 L600,242.0 L660,234.5 L720,228.2 L780,237.4 L840,240.0 L900,229.9 L960,233.0 L1020,238.5 L1080,235.3 L1140,231.4 L1200,236.3;M0,235.9 L60,232.1 L120,230.3 L180,234.3 L240,237.6 L300,227.7 L360,231.1 L420,239.0 L480,233.4 L540,225.5 L600,236.8 L660,238.1 L720,227.8 L780,230.0 L840,239.4 L900,232.6 L960,228.2 L1020,234.9 L1080,235.8 L1140,230.7 L1200,232.1;M0,230.3 L60,228.9 L120,235.4 L180,230.3 L240,227.0 L300,232.4 L360,237.1 L420,225.0 L480,228.8 L540,236.9 L600,232.4 L660,222.9 L720,235.0 L780,235.3 L840,227.5 L900,227.2 L960,237.1 L1020,230.1 L1080,228.6 L1140,231.0 L1200,233.8"/></path>
    </g>

    <ellipse cx="600" cy="221" rx="224" ry="96" fill="#C29B38" opacity=".08" filter="url(#soft)"/>
    <circle cx="600" cy="104" r="86" fill="url(#medallionGlow)"/>
    <g filter="url(#medallionShadow)">
      <circle cx="600" cy="104" r="58" fill="#090907" fill-opacity=".94" stroke="#D3AF4C" stroke-opacity=".5" stroke-width="2"/>
    </g>
    <circle cx="600" cy="104" r="52" fill="#040404" stroke="#8E722D" stroke-opacity=".55"/>
    <g transform="translate(600 104)" stroke="#F5F3EE" stroke-linecap="round" stroke-linejoin="round" fill="none">
      <circle r="13" stroke-opacity=".35"/>
      <path d="M-20 0H-15.5 M15.5 0H20" stroke-width="2.6" stroke-opacity=".9"/>
      <path d="M-10 -7.2C-8.8 -6.1 -8.2 -4.6 -8.2 -3V3C-8.2 4.6 -8.8 6.1 -10 7.2" stroke-width="3"/>
      <path d="M10 -7.2C8.8 -6.1 8.2 -4.6 8.2 -3V3C8.2 4.6 8.8 6.1 10 7.2" stroke-width="3"/>
      <path d="M-2.6 -10.6C-1.3 -10.8 1.3 -10.8 2.6 -10.6V10.6C1.3 10.8 -1.3 10.8 -2.6 10.6Z" fill="#F5F3EE" stroke="none"/>
    </g>

    <text x="600" y="204" fill="#F7F5EF" font-family="Segoe UI,Arial,sans-serif" font-size="66" font-weight="650" letter-spacing="-2.2" text-anchor="middle">Diarix</text>
    <text x="600" y="244" fill="#C7C2B6" font-family="Segoe UI,Arial,sans-serif" font-size="19" font-weight="450" letter-spacing=".35" text-anchor="middle">LOCAL SPEECH INTELLIGENCE, WITHOUT THE CLOUD</text>

    <g transform="translate(300 278)">
      <rect width="600" height="54" rx="27" fill="#0D0D0C" fill-opacity=".78" stroke="#B89432" stroke-opacity=".28"/>
      <text x="300" y="34" fill="#E9E4D8" font-family="Inter,Segoe UI,Arial,sans-serif" font-size="17" text-anchor="middle">
        Transcribe  ·  Dictate  ·  Generate  ·  Refine
      </text>
    </g>

    <g transform="translate(390 363)" font-family="Inter,Segoe UI,Arial,sans-serif" font-size="13">
      <g>
        <rect width="124" height="34" rx="17" fill="#B89432" fill-opacity=".12" stroke="#B89432" stroke-opacity=".32"/>
        <circle cx="21" cy="17" r="4" fill="#D7B94E"/>
        <text x="36" y="22" fill="#DDD7C8">Tauri native</text>
      </g>
      <g transform="translate(136)">
        <rect width="142" height="34" rx="17" fill="#B89432" fill-opacity=".12" stroke="#B89432" stroke-opacity=".32"/>
        <circle cx="21" cy="17" r="4" fill="#62D49A"/>
        <text x="36" y="22" fill="#DDD7C8">Local inference</text>
      </g>
      <g transform="translate(290)">
        <rect width="130" height="34" rx="17" fill="#B89432" fill-opacity=".12" stroke="#B89432" stroke-opacity=".32"/>
        <circle cx="21" cy="17" r="4" fill="#77A8FF"/>
        <text x="36" y="22" fill="#DDD7C8">CUDA ready</text>
      </g>
    </g>
  </g>
</svg>
