<svg width="360" height="286" viewBox="0 0 360 286" fill="none" xmlns="http://www.w3.org/2000/svg" role="img" aria-labelledby="t d">
  <title id="t">Text to speech</title>
  <desc id="d">TTS · voices, cloning, profiles and stories</desc>
  <defs>
    <linearGradient id="bg" x1="20" y1="0" x2="340" y2="286" gradientUnits="userSpaceOnUse">
      <stop stop-color="#141010"></stop><stop offset="1" stop-color="#0A0808"></stop>
    </linearGradient>
    <radialGradient id="topGlow" cx="0" cy="0" r="1" gradientUnits="userSpaceOnUse" gradientTransform="translate(180 34) rotate(90) scale(80 210)">
      <stop stop-color="#F29393" stop-opacity=".15"></stop><stop offset="1" stop-color="#F29393" stop-opacity="0"></stop>
    </radialGradient>
    <linearGradient id="frameStroke" x1="0" y1="0" x2="360" y2="286" gradientUnits="userSpaceOnUse">
      <stop stop-color="#5E3E3E" stop-opacity=".65"></stop><stop offset=".5" stop-color="#2A2C28" stop-opacity=".45"></stop><stop offset="1" stop-color="#5E3E3E" stop-opacity=".3"></stop>
    </linearGradient>
    <linearGradient id="panel" x1="22" y1="74" x2="338" y2="160" gradientUnits="userSpaceOnUse">
      <stop stop-color="#0C0D0B"></stop><stop offset="1" stop-color="#101210"></stop>
    </linearGradient>
    <linearGradient id="fade" x1="0" y1="0" x2="360" y2="0" gradientUnits="userSpaceOnUse">
      <stop stop-color="white" stop-opacity="0"></stop><stop offset=".1" stop-color="white"></stop><stop offset=".9" stop-color="white"></stop><stop offset="1" stop-color="white" stop-opacity="0"></stop>
    </linearGradient>
    <mask id="mmask"><rect width="360" height="60" fill="url(#fade)"></rect></mask>
    <filter id="sglow" x="-40%" y="-40%" width="180%" height="180%"><feGaussianBlur stdDeviation="1.6"></feGaussianBlur></filter>
    <clipPath id="fr"><rect width="360" height="286" rx="20"></rect></clipPath>
    <clipPath id="pclip"><rect x="22" y="74" width="316" height="86" rx="14"></rect></clipPath>
  </defs>
  <g clip-path="url(#fr)">
    <rect width="360" height="286" rx="20" fill="url(#bg)"></rect>
    <rect width="360" height="286" fill="url(#topGlow)"></rect>

    <g transform="translate(22 20)">
      <rect width="38" height="38" rx="12" fill="#1A1212" stroke="#553737"></rect>
      <g transform="translate(19 19)"><g transform="translate(-1 0)"><path d="M-8 -4V4H-3L3 9V-9L-3 -4H-8Z" fill="#F29393" fill-opacity=".25" stroke="#F29393" stroke-width="1.8" stroke-linejoin="round"></path><path d="M6 -5C10 -2 10 2 6 5" fill="none" stroke="#F29393" stroke-width="1.8" stroke-linecap="round">
      <animate attributeName="stroke-opacity" values=".25;1;.25" dur="1.5s" repeatCount="indefinite"></animate>
    </path><path d="M10 -8C16 -3 16 3 10 8" fill="none" stroke="#F29393" stroke-width="1.8" stroke-linecap="round">
      <animate attributeName="stroke-opacity" values=".18;1;.18" dur="1.5s" begin=".22s" repeatCount="indefinite"></animate>
    </path></g></g>
    </g>
    <text x="72" y="37" fill="#F4F5F1" font-family="Segoe UI,Arial,sans-serif" font-size="17" font-weight="650" letter-spacing="-.2">Text to speech</text>
    <text x="72" y="55" fill="#828B81" font-family="Segoe UI,Arial,sans-serif" font-size="10.5">TTS · voices, cloning, profiles and stories</text>

    <rect x="22" y="74" width="316" height="86" rx="14" fill="url(#panel)" stroke="#23251F"></rect>
    <g clip-path="url(#pclip)"><g transform="translate(181 117)">
      <path d="M-27 -8 L-18 -8 L1 -16 L1 16 L-18 8 L-27 8 Z" fill="#F29393" fill-opacity=".15" stroke="#F6A5A5" stroke-width="1.8" stroke-linejoin="round" stroke-linecap="round">
        <animate attributeName="fill-opacity" values=".10;.28;.10" dur="2s" repeatCount="indefinite"></animate>
        <animate attributeName="stroke-opacity" values=".72;1;.72" dur="2s" repeatCount="indefinite"></animate>
      </path>
      <g filter="url(#sglow)" fill="none" stroke="#F8B4B4" stroke-linecap="round">
        <path d="M6.4 -5.9 A8 8 0 0 1 6.4 5.9" stroke-width="2.8"><animate attributeName="stroke-opacity" values=".28;1;.28" dur="1.55s" begin="0s" repeatCount="indefinite"></animate><animateTransform attributeName="transform" type="scale" values="0.92 0.92;1.08 1.08;0.92 0.92" dur="1.55s" begin="0s" repeatCount="indefinite"></animateTransform></path>
        <path d="M11 -11.1 A15 15 0 0 1 11 11.1" stroke-width="2.6"><animate attributeName="stroke-opacity" values=".28;1;.28" dur="1.55s" begin=".18s" repeatCount="indefinite"></animate><animateTransform attributeName="transform" type="scale" values="0.9 0.9;1.1 1.1;0.9 0.9" dur="1.55s" begin=".18s" repeatCount="indefinite"></animateTransform></path>
        <path d="M15.7 -16.3 A22 22 0 0 1 15.7 16.3" stroke-width="2.4"><animate attributeName="stroke-opacity" values=".28;1;.28" dur="1.55s" begin=".36s" repeatCount="indefinite"></animate><animateTransform attributeName="transform" type="scale" values="0.88 0.88;1.12 1.12;0.88 0.88" dur="1.55s" begin=".36s" repeatCount="indefinite"></animateTransform></path>
      </g>
    </g></g>

    <circle cx="30" cy="182" r="4.5" fill="#F29393">
      <animate attributeName="opacity" values=".62;1;.62" dur="2.2s" repeatCount="indefinite"></animate>
    </circle>
    <circle cx="30" cy="182" r="7.5" fill="none" stroke="#F29393" stroke-opacity=".3">
      <animate attributeName="r" values="7.5;11;7.5" dur="2.2s" repeatCount="indefinite"></animate>
      <animate attributeName="stroke-opacity" values=".34;0;.34" dur="2.2s" repeatCount="indefinite"></animate>
    </circle>
    <text x="44" y="186" fill="#BAC3BB" font-family="Segoe UI,Arial,sans-serif" font-size="11">One lifecycle for every local voice engine</text>

    <g mask="url(#mmask)" transform="translate(0 208)" font-family="Segoe UI,Arial,sans-serif">
      <g>
        <g><g transform="translate(0 0)"><rect width="124" height="50" rx="13" fill="#1A1313" stroke="#583737"></rect><circle cx="18" cy="17" r="4" fill="#FF9292"></circle><circle cx="18" cy="17" r="7.5" fill="none" stroke="#FF9292" stroke-opacity=".35"></circle><text x="32" y="21" fill="#F1F3EE" font-size="10.5" font-weight="600">Qwen3-TTS</text><text x="15" y="39" fill="#8B948A" font-size="9">voice design</text></g><g transform="translate(138 0)"><rect width="124" height="50" rx="13" fill="#191512" stroke="#54452E"></rect><circle cx="18" cy="17" r="4" fill="#EDBF72"></circle><circle cx="18" cy="17" r="7.5" fill="none" stroke="#EDBF72" stroke-opacity=".35"></circle><text x="32" y="21" fill="#F1F3EE" font-size="10.5" font-weight="600">Kokoro</text><text x="15" y="39" fill="#8B948A" font-size="9">compact voices</text></g><g transform="translate(276 0)"><rect width="124" height="50" rx="13" fill="#151319" stroke="#483B58"></rect><circle cx="18" cy="17" r="4" fill="#B99AEA"></circle><circle cx="18" cy="17" r="7.5" fill="none" stroke="#B99AEA" stroke-opacity=".35"></circle><text x="32" y="21" fill="#F1F3EE" font-size="10.5" font-weight="600">Chatterbox</text><text x="15" y="39" fill="#8B948A" font-size="9">expressive speech</text></g><g transform="translate(414 0)"><rect width="124" height="50" rx="13" fill="#111719" stroke="#30505A"></rect><circle cx="18" cy="17" r="4" fill="#72C9E5"></circle><circle cx="18" cy="17" r="7.5" fill="none" stroke="#72C9E5" stroke-opacity=".35"></circle><text x="32" y="21" fill="#F1F3EE" font-size="10.5" font-weight="600">LuxTTS</text><text x="15" y="39" fill="#8B948A" font-size="9">voice cloning</text></g></g><g transform="translate(552 0)"><g transform="translate(0 0)"><rect width="124" height="50" rx="13" fill="#1A1313" stroke="#583737"></rect><circle cx="18" cy="17" r="4" fill="#FF9292"></circle><circle cx="18" cy="17" r="7.5" fill="none" stroke="#FF9292" stroke-opacity=".35"></circle><text x="32" y="21" fill="#F1F3EE" font-size="10.5" font-weight="600">Qwen3-TTS</text><text x="15" y="39" fill="#8B948A" font-size="9">voice design</text></g><g transform="translate(138 0)"><rect width="124" height="50" rx="13" fill="#191512" stroke="#54452E"></rect><circle cx="18" cy="17" r="4" fill="#EDBF72"></circle><circle cx="18" cy="17" r="7.5" fill="none" stroke="#EDBF72" stroke-opacity=".35"></circle><text x="32" y="21" fill="#F1F3EE" font-size="10.5" font-weight="600">Kokoro</text><text x="15" y="39" fill="#8B948A" font-size="9">compact voices</text></g><g transform="translate(276 0)"><rect width="124" height="50" rx="13" fill="#151319" stroke="#483B58"></rect><circle cx="18" cy="17" r="4" fill="#B99AEA"></circle><circle cx="18" cy="17" r="7.5" fill="none" stroke="#B99AEA" stroke-opacity=".35"></circle><text x="32" y="21" fill="#F1F3EE" font-size="10.5" font-weight="600">Chatterbox</text><text x="15" y="39" fill="#8B948A" font-size="9">expressive speech</text></g><g transform="translate(414 0)"><rect width="124" height="50" rx="13" fill="#111719" stroke="#30505A"></rect><circle cx="18" cy="17" r="4" fill="#72C9E5"></circle><circle cx="18" cy="17" r="7.5" fill="none" stroke="#72C9E5" stroke-opacity=".35"></circle><text x="32" y="21" fill="#F1F3EE" font-size="10.5" font-weight="600">LuxTTS</text><text x="15" y="39" fill="#8B948A" font-size="9">voice cloning</text></g></g>
        <animateTransform attributeName="transform" type="translate" from="0 0" to="-552 0" dur="18s" repeatCount="indefinite"></animateTransform>
      </g>
    </g>
    <rect x=".75" y=".75" width="358.5" height="284.5" rx="19.25" stroke="url(#frameStroke)" stroke-width="1.5"></rect>
  </g>
</svg>