<svg width="360" height="286" viewBox="0 0 360 286" fill="none" xmlns="http://www.w3.org/2000/svg" role="img" aria-labelledby="title desc">
  <title id="title">Diarix ASR runtimes</title>
  <desc id="desc">A continuous one-way stream of speech recognition models beneath a live transcription signal.</desc>
  <defs>
    <linearGradient id="bg" x1="12" y1="8" x2="348" y2="278"><stop stop-color="#10140F"/><stop offset="1" stop-color="#090A09"/></linearGradient>
    <linearGradient id="fade"><stop stop-color="white" stop-opacity="0"/><stop offset=".08" stop-color="white"/><stop offset=".92" stop-color="white"/><stop offset="1" stop-color="white" stop-opacity="0"/></linearGradient>
    <mask id="mask"><rect width="360" height="62" fill="url(#fade)"/></mask>
    <clipPath id="frame"><rect width="360" height="286" rx="16"/></clipPath>
    <g id="track" font-family="Segoe UI,Arial,sans-serif">
      <g><rect width="118" height="48" rx="10" fill="#151914" stroke="#334E3E"/><circle cx="17" cy="16" r="4" fill="#65D895"/><text x="28" y="20" fill="#F0F3EE" font-size="10.5" font-weight="600">Faster-Whisper</text><text x="13" y="37" fill="#839087" font-size="9">live partials</text></g>
      <g transform="translate(132)"><rect width="118" height="48" rx="10" fill="#141619" stroke="#34455E"/><circle cx="17" cy="16" r="4" fill="#83AFFF"/><text x="28" y="20" fill="#F0F3EE" font-size="10.5" font-weight="600">NVIDIA Canary</text><text x="13" y="37" fill="#818A98" font-size="9">CUDA inference</text></g>
      <g transform="translate(264)"><rect width="118" height="48" rx="10" fill="#171419" stroke="#4D3860"/><circle cx="17" cy="16" r="4" fill="#C29BFF"/><text x="28" y="20" fill="#F0F3EE" font-size="10.5" font-weight="600">Qwen3-ASR</text><text x="13" y="37" fill="#8F8496" font-size="9">30 languages</text></g>
      <g transform="translate(396)"><rect width="118" height="48" rx="10" fill="#171612" stroke="#5A4A25"/><circle cx="17" cy="16" r="4" fill="#E0BD57"/><text x="28" y="20" fill="#F0F3EE" font-size="10.5" font-weight="600">Whisper</text><text x="13" y="37" fill="#918B7C" font-size="9">99 languages</text></g>
    </g>
  </defs>
  <g clip-path="url(#frame)">
    <rect width="360" height="286" rx="16" fill="url(#bg)"/><rect x=".5" y=".5" width="359" height="285" rx="15.5" stroke="#273129"/>
    <text x="24" y="34" fill="#F4F5F1" font-family="Segoe UI,Arial,sans-serif" font-size="17" font-weight="650">Speech to text</text>
    <text x="24" y="54" fill="#7E887F" font-family="Segoe UI,Arial,sans-serif" font-size="11">ASR · model-ready audio to searchable text</text>
    <g transform="translate(44 86)" stroke="#94E2AF" stroke-width="3" stroke-linecap="round">
      <path d="M0 26H20M28 17V35M40 7V45M52 21V31M64 11V41M76 24V28M88 16V36M100 5V47M112 20V32M124 13V39M136 23V29M148 9V43M160 18V34M172 3V49M184 15V37M196 22V30M208 10V42M220 19V33M232 25V27M240 26H272" opacity=".26"/>
      <path d="M0 26H28M36 17V35M48 8V44M60 21V31M72 12V40M84 24V28M96 18V34M108 26H272">
        <animate attributeName="d" dur="2.8s" repeatCount="indefinite" values="M0 26H28M36 17V35M48 8V44M60 21V31M72 12V40M84 24V28M96 18V34M108 26H272;M0 26H28M36 10V42M48 19V33M60 5V47M72 21V31M84 13V39M96 23V29M108 26H272;M0 26H28M36 17V35M48 8V44M60 21V31M72 12V40M84 24V28M96 18V34M108 26H272"/>
      </path>
    </g>
    <circle cx="29" cy="166" r="5" fill="#65D895"/><text x="42" y="170" fill="#B9C2BA" font-family="Segoe UI,Arial,sans-serif" font-size="11">Live chunks, cancellation and honest progress</text>
    <g mask="url(#mask)" transform="translate(0 204)"><g><use href="#track"/><use href="#track" x="528"/><animateTransform attributeName="transform" type="translate" from="0 0" to="-528 0" dur="18s" repeatCount="indefinite"/></g></g>
  </g>
</svg>
